<?xml version="1.0" encoding="utf-8"?>
<svg xmlns="http://www.w3.org/2000/svg" width="760" height="1002" viewBox="0 0 760 1002">
  <path fill-rule="evenodd" d="M 338.335 70.200 C 315.730 108.272, 296.844 139.542, 296.367 139.688 C 295.890 139.834, 286.545 124.860, 275.601 106.411 C 259.593 79.428, 255.463 73.126, 254.478 74.185 C 253.384 75.359, 214.723 140.636, 49.119 420.922 L 1.011 502.344 3.684 506.922 C 7.813 513.995, 190.069 822.346, 222.572 877.250 C 238.445 904.063, 251.672 925.995, 251.966 925.990 C 252.260 925.984, 261.712 910.459, 272.971 891.490 C 284.230 872.520, 293.700 857, 294.015 857 C 294.330 857, 313.642 889.175, 336.930 928.500 C 360.218 967.825, 379.599 1000, 379.999 1000 C 380.398 1000, 394.905 976.038, 412.237 946.750 C 461.575 863.375, 465.393 857, 465.996 857 C 466.308 857, 475.288 871.670, 485.952 889.600 C 496.616 907.530, 506.054 923.080, 506.924 924.154 C 508.425 926.008, 509.665 924.153, 530.899 888.304 C 554.918 847.754, 751.854 514.556, 756.318 506.914 L 758.997 502.329 678.687 366.414 C 520.404 98.541, 506.741 75.483, 505.527 74.185 C 504.537 73.125, 500.432 79.385, 484.399 106.411 C 473.455 124.860, 464.073 139.822, 463.551 139.660 C 463.029 139.499, 444.239 108.347, 421.795 70.434 C 399.351 32.520, 380.639 1.383, 380.213 1.239 C 379.786 1.096, 360.941 32.129, 338.335 70.200 M 338.010 84.447 C 315.331 122.690, 296.412 153.755, 295.968 153.480 C 295.523 153.205, 286.296 138.135, 275.464 119.990 C 264.632 101.846, 255.483 87.009, 255.134 87.019 C 254.786 87.030, 241.010 109.867, 224.523 137.769 C 208.036 165.671, 152.791 259.109, 101.755 345.408 L 8.964 502.316 42.102 558.408 C 166.903 769.661, 251.354 912, 251.891 912 C 252.237 912, 261.557 896.812, 272.602 878.250 C 283.648 859.688, 293.257 844.500, 293.956 844.500 C 294.655 844.500, 314.050 876.225, 337.057 915 C 360.063 953.775, 379.398 985.500, 380.022 985.500 C 380.647 985.500, 399.936 953.775, 422.887 915 C 445.838 876.225, 465.223 844.500, 465.965 844.500 C 466.707 844.500, 476.345 859.688, 487.383 878.250 C 498.421 896.812, 507.740 912, 508.093 912 C 508.749 912, 516.340 899.236, 631.493 704.500 C 734.602 530.132, 750 503.864, 750 502.336 C 750 500.915, 731.276 468.973, 637.843 311 C 610.680 265.075, 569.791 195.906, 546.978 157.292 C 524.165 118.677, 505.104 87.197, 504.619 87.335 C 504.135 87.474, 494.910 102.379, 484.119 120.458 C 473.329 138.537, 464.082 153.303, 463.571 153.271 C 463.060 153.238, 444.313 122.240, 421.911 84.386 C 399.509 46.532, 380.744 15.415, 380.212 15.237 C 379.679 15.060, 360.689 46.204, 338.010 84.447 M 339.114 110.971 C 316.997 147.837, 298.586 177.996, 298.201 177.990 C 297.815 177.985, 288.885 163.697, 278.355 146.240 C 267.826 128.783, 258.724 114.500, 258.130 114.500 C 257.535 114.500, 251.951 123.050, 245.721 133.500 C 239.490 143.950, 204.894 201.775, 168.840 262 C 42.443 473.134, 26 500.796, 26 502.296 C 26 503.127, 46.535 538.163, 71.634 580.154 C 203.490 800.749, 254.137 885, 254.892 885 C 255.352 885, 264.626 870.150, 275.500 852 C 286.374 833.850, 295.548 819, 295.886 819.001 C 296.224 819.002, 315.134 850.052, 337.909 888.001 C 360.683 925.950, 379.626 957, 380.002 957 C 380.379 957, 399.258 925.950, 421.957 888 C 444.655 850.050, 463.521 819, 463.881 819 C 464.242 819, 473.493 833.850, 484.440 852 C 495.386 870.150, 504.703 885, 505.144 885 C 505.585 885, 530.647 843.713, 560.837 793.250 C 699.118 562.116, 732.377 506.326, 733.299 503.947 C 734.197 501.633, 726.996 489.195, 656 370.447 C 518.818 140.997, 502.543 113.986, 501.654 114.282 C 501.175 114.442, 492.169 128.838, 481.642 146.274 C 471.114 163.710, 462.093 177.846, 461.595 177.686 C 461.097 177.527, 442.766 147.497, 420.859 110.953 C 398.953 74.409, 380.646 44.382, 380.178 44.226 C 379.710 44.070, 361.231 74.105, 339.114 110.971 M 367.627 114.749 C 306.445 216.552, 213 373.250, 213 374.042 C 213 374.680, 221.677 374.940, 237.250 374.768 L 261.500 374.500 320.222 276.500 C 352.518 222.600, 379.416 178.500, 379.995 178.500 C 380.573 178.500, 407.473 222.600, 439.773 276.500 L 498.500 374.500 522.871 374.768 C 545.770 375.020, 547.213 374.929, 546.743 373.268 C 546.101 370.995, 381.107 95.583, 380.188 95.249 C 379.808 95.112, 374.155 103.887, 367.627 114.749 M 245.394 185.286 C 238.736 196.404, 202.572 256.785, 165.030 319.467 C 127.487 382.148, 96.549 434.011, 96.279 434.717 C 95.886 435.740, 100.755 436, 120.281 436 L 144.776 436 201.045 341.969 C 231.993 290.252, 257.792 248.097, 258.376 248.292 C 258.959 248.486, 261.251 251.637, 263.469 255.294 C 265.686 258.950, 267.725 261.953, 268 261.966 C 268.719 262.001, 291.072 224.439, 291.652 222.221 C 291.965 221.025, 286.239 210.545, 275.511 192.684 C 266.367 177.458, 258.574 165.016, 258.193 165.036 C 257.812 165.056, 252.052 174.168, 245.394 185.286 M 484.557 192.569 C 475.451 207.732, 468 220.633, 468 221.236 C 468 222.520, 491.251 262, 492.007 262 C 492.287 262, 494.319 258.998, 496.521 255.329 C 498.723 251.660, 501.012 248.496, 501.609 248.297 C 502.205 248.098, 528.013 290.250, 558.959 341.968 L 615.226 436 639.613 436 C 653.026 436, 664 435.729, 664 435.398 C 664 434.254, 502.498 165.013, 501.807 165.006 C 501.426 165.003, 493.664 177.406, 484.557 192.569 M 335.491 396.865 C 319.974 403.914, 319.408 427.694, 334.582 435.040 C 340.849 438.074, 349.058 438.216, 354.500 435.385 C 359.154 432.964, 359.630 430.559, 355.991 427.843 C 353.530 426.006, 353.406 426.009, 349.491 428.035 C 344.606 430.563, 340.674 430.020, 336.770 426.280 C 328.499 418.355, 333.247 403, 343.969 403 C 346.134 403, 349.016 403.506, 350.374 404.124 C 352.441 405.066, 353.348 404.888, 355.962 403.027 C 358.614 401.139, 358.889 400.571, 357.791 399.247 C 354.186 394.900, 342.553 393.657, 335.491 396.865 M 375.500 396.890 C 368.058 400.325, 364 407.068, 364 416 C 364 428.932, 372.681 437.360, 386 437.360 C 399.160 437.360, 408.021 428.593, 407.990 415.601 C 407.978 410.302, 404.025 401.854, 400.366 399.303 C 393.699 394.657, 382.661 393.585, 375.500 396.890 M 195.040 397.195 C 195.063 397.913, 198.550 407.050, 202.790 417.500 L 210.500 436.500 214 436.500 L 217.500 436.500 225.680 417 C 230.179 406.275, 233.891 397.138, 233.930 396.695 C 233.968 396.253, 231.925 396.028, 229.389 396.195 L 224.779 396.500 220.139 408.360 C 217.588 414.883, 215.050 420.220, 214.500 420.220 C 213.950 420.220, 211.412 414.883, 208.861 408.360 L 204.221 396.500 199.611 396.195 C 196.315 395.977, 195.012 396.263, 195.040 397.195 M 238.202 414.954 C 233.690 425.430, 229.887 434.564, 229.750 435.251 C 229.588 436.057, 231.010 436.609, 233.761 436.808 C 237.957 437.111, 238.051 437.047, 239.975 432.558 L 241.929 428 250.021 428 L 258.112 428 260.103 432.500 C 262.032 436.862, 262.230 437, 266.547 437 C 268.996 437, 271 436.586, 271 436.081 C 271 435.576, 267.214 426.463, 262.586 415.831 L 254.173 396.500 250.289 396.202 L 246.405 395.905 238.202 414.954 M 277.229 416.250 L 277.500 436.500 281.500 436.500 L 285.500 436.500 285.778 422.750 C 285.931 415.188, 286.382 409, 286.779 409 C 287.177 409, 291.338 415.188, 296.025 422.750 L 304.548 436.500 310.024 436.500 L 315.500 436.500 315.771 416.191 L 316.042 395.883 311.771 396.191 L 307.500 396.500 307 410 L 306.500 423.500 300.636 414 C 297.411 408.775, 293.586 402.588, 292.136 400.252 L 289.500 396.004 283.229 396.002 L 276.959 396 277.229 416.250 M 416.160 411.250 C 416.451 424.310, 416.787 426.989, 418.500 429.902 C 422.833 437.275, 435.601 439.882, 443.490 435.006 C 449.668 431.188, 450.952 426.943, 450.978 410.250 L 451 396 446.500 396 L 442 396 442 409.944 C 442 423.173, 441.878 424.030, 439.630 426.644 C 437.824 428.743, 436.363 429.400, 433.500 429.400 C 430.637 429.400, 429.176 428.743, 427.370 426.644 C 425.122 424.030, 425 423.173, 425 409.944 L 425 396 420.410 396 L 415.821 396 416.160 411.250 M 457.421 397.750 C 457.727 398.712, 461.311 407.825, 465.385 418 C 472.501 435.773, 472.907 436.512, 475.731 436.801 C 477.348 436.967, 479.143 436.517, 479.722 435.801 C 480.903 434.340, 496 398.237, 496 396.874 C 496 396.393, 494.044 396, 491.653 396 L 487.305 396 483.059 407.342 C 478.123 420.527, 477.425 421.866, 476.198 420.492 C 475.711 419.946, 473.329 414.213, 470.906 407.750 L 466.500 396.001 461.683 396 C 457.549 396, 456.944 396.249, 457.421 397.750 M 503 416.499 L 503 437.055 517.250 436.777 L 531.500 436.500 531.808 432.787 L 532.116 429.074 522.308 428.787 L 512.500 428.500 512.194 424.290 L 511.889 420.079 520.694 419.790 L 529.500 419.500 529.500 416 L 529.500 412.500 520.750 412.211 L 512 411.922 512 407.999 L 512 404.075 521.250 403.788 L 530.500 403.500 530.500 400 L 530.500 396.500 516.750 396.222 L 503 395.944 503 416.499 M 540.229 416.168 L 540.500 436.500 544.500 436.500 L 548.500 436.500 549 428.500 C 549.473 420.934, 549.626 420.500, 551.828 420.500 C 553.723 420.500, 554.931 421.986, 558.328 428.500 L 562.500 436.500 567.250 436.805 C 569.868 436.973, 572 436.673, 572 436.137 C 572 435.603, 569.926 431.657, 567.391 427.369 C 564.856 423.081, 563.258 419.414, 563.841 419.220 C 566.651 418.283, 570.027 414.562, 570.885 411.455 C 572.120 406.983, 570.761 402.064, 567.424 398.926 C 565.028 396.672, 563.964 396.476, 552.402 396.168 L 539.958 395.836 540.229 416.168 M 379.190 404.353 C 369.902 409.507, 371.361 425.453, 381.425 428.769 C 392.184 432.315, 401.420 423.021, 398.111 411.977 C 396.421 406.336, 391.956 402.992, 386.173 403.035 C 383.603 403.055, 380.460 403.648, 379.190 404.353 M 549.195 407.750 C 549.494 412.404, 549.572 412.506, 553.056 412.799 C 558.790 413.281, 562 411.579, 562 408.060 C 562 404.350, 559.734 403, 553.511 403 L 548.890 403 549.195 407.750 M 247.143 414.111 C 245.975 416.922, 245.266 419.622, 245.568 420.111 C 246.234 421.188, 253.702 421.306, 254.322 420.250 C 254.897 419.268, 250.952 409, 249.999 409 C 249.596 409, 248.311 411.300, 247.143 414.111 M 448 465.053 C 441.053 466.479, 431.607 471.585, 427.493 476.140 C 418.542 486.047, 415.662 500.943, 419.960 515.096 C 421.871 521.385, 422.983 523.167, 428.332 528.512 C 436.666 536.839, 442.989 539.334, 456 539.430 C 463.896 539.488, 466.344 539.111, 470.500 537.199 C 475.116 535.074, 482 529.522, 482 527.924 C 482 526.952, 471.307 519, 469.999 519 C 469.402 519, 467.727 520.099, 466.278 521.443 C 460.795 526.527, 450.760 526.853, 443.730 522.176 C 431.126 513.792, 430.919 492.578, 443.343 482.589 C 446.903 479.728, 447.762 479.500, 455.009 479.500 C 461.598 479.500, 463.322 479.862, 465.935 481.794 C 469.349 484.318, 468.969 484.438, 476.298 478.500 C 478.334 476.850, 480 474.960, 480 474.301 C 480 472.572, 474.033 468.276, 469.325 466.615 C 463.860 464.686, 453.488 463.927, 448 465.053 M 652.344 464.988 C 639.945 467.601, 632 476.419, 632 487.567 C 632 497.382, 636.419 502.026, 650.867 507.398 C 655.935 509.282, 661.182 511.544, 662.525 512.425 C 668.105 516.081, 666.137 523.078, 658.988 525.003 C 653.956 526.358, 648.954 525.458, 644.422 522.382 C 642.491 521.072, 640.594 520.006, 640.206 520.013 C 639.818 520.020, 637.277 522.559, 634.561 525.656 L 629.622 531.287 632.561 533.666 C 637.324 537.523, 648.053 540.337, 655.865 539.778 C 671.790 538.638, 681 530.271, 681 516.941 C 681 505.359, 677.618 501.707, 661.632 496.031 C 650.581 492.106, 647.227 489.214, 648.384 484.605 C 649.729 479.246, 660.190 477.210, 667.167 480.950 L 670.805 482.899 676.071 477.331 L 681.337 471.763 678.919 469.904 C 673.480 465.723, 660.366 463.297, 652.344 464.988 M 71.043 467.250 C 71.067 467.938, 75.717 484.025, 81.378 503 L 91.669 537.500 98.625 537.790 L 105.581 538.079 107.724 531.290 C 118.416 497.418, 121.279 488.943, 121.845 489.491 C 122.205 489.841, 125.893 500.786, 130.041 513.813 L 137.581 537.500 144.736 537.793 L 151.890 538.085 153.898 531.293 C 155.002 527.557, 159.505 512.212, 163.904 497.192 C 168.303 482.173, 172.179 469.010, 172.518 467.942 C 173.093 466.131, 172.601 466, 165.219 466 L 157.303 466 151.537 488.250 C 148.365 500.488, 145.411 510.889, 144.971 511.364 C 144.532 511.839, 141.191 502.839, 137.547 491.364 C 128.504 462.888, 130.365 465.857, 121.778 466.206 L 114.553 466.500 107.136 489.374 C 102.728 502.969, 99.425 511.691, 98.995 510.874 C 98.597 510.118, 95.859 499.712, 92.910 487.750 L 87.547 466 79.274 466 C 73.298 466, 71.012 466.347, 71.043 467.250 M 181.706 466.627 C 181.318 467.015, 181 483.233, 181 502.667 L 181 538 189 538 L 197 538 197 522.500 L 197 507 212.474 507 L 227.948 507 228.224 522.250 L 228.500 537.500 236.263 537.792 L 244.025 538.085 243.763 502.292 L 243.500 466.500 236 466.500 L 228.500 466.500 228.221 479.750 L 227.942 493 212.500 493 L 197.058 493 196.779 479.750 L 196.500 466.500 189.456 466.210 C 185.582 466.051, 182.095 466.239, 181.706 466.627 M 262 502 L 262 538 269.500 538 L 277 538 277 502 L 277 466 269.500 466 L 262 466 262 502 M 290 472.949 L 290 479.930 300.250 480.215 L 310.500 480.500 310.765 509.250 L 311.031 538 318.515 538 L 326 538 326 509.035 L 326 480.070 336.250 479.785 L 346.500 479.500 346.500 473 L 346.500 466.500 318.250 466.234 L 290 465.969 290 472.949 M 360 501.982 L 360 538 385 538 L 410 538 410 531.024 L 410 524.047 392.750 523.774 L 375.500 523.500 375.500 516.500 L 375.500 509.500 387.500 509 L 399.500 508.500 399.500 501.500 L 399.500 494.500 387.500 494 L 375.500 493.500 375.203 487.281 C 374.842 479.708, 373.915 480.079, 394 479.743 L 408.500 479.500 408.500 473 L 408.500 466.500 384.250 466.232 L 360 465.964 360 501.982 M 515.085 468.708 C 509.137 481.739, 486 535.992, 486 536.909 C 486 537.733, 488.440 537.995, 494.226 537.790 L 502.453 537.500 505.140 530.500 L 507.827 523.500 522.287 523.224 L 536.746 522.948 539.687 530.224 L 542.627 537.500 551.314 537.789 C 556.091 537.948, 560 537.877, 560 537.632 C 560 537.386, 553.085 521.281, 544.632 501.843 L 529.265 466.500 522.812 466.208 C 516.601 465.928, 516.311 466.022, 515.085 468.708 M 568.492 467.161 C 568.207 467.904, 568.092 484.035, 568.237 503.006 L 568.500 537.500 576.250 537.792 L 584 538.084 584 524.042 L 584 510 592.290 510 C 613.179 510, 621.926 503.491, 621.978 487.907 C 622.010 478.384, 619.201 473.451, 611.497 469.500 C 605.724 466.539, 605.406 466.495, 587.329 466.155 C 572.623 465.878, 568.908 466.076, 568.492 467.161 M 584 487.872 L 584 497 590.750 496.998 C 601.752 496.996, 607.395 492.693, 605.628 485.653 C 604.586 481.504, 600.783 479.715, 591.916 479.201 L 584 478.743 584 487.872 M 517.724 497.750 C 515.650 503.113, 513.963 508.063, 513.976 508.750 C 514.003 510.136, 529.523 510.611, 530.323 509.250 C 530.868 508.324, 523.048 488, 522.147 488 C 521.789 488, 519.799 492.387, 517.724 497.750 M 400.746 567.029 C 390.164 569.684, 381.101 577.022, 376.279 586.840 C 373.752 591.988, 373.500 593.496, 373.500 603.500 C 373.500 613.463, 373.766 615.076, 376.327 620.617 C 386.125 641.819, 416.006 648.488, 433.866 633.459 C 435.590 632.009, 437 630.439, 437 629.970 C 437 629.501, 434.303 627.042, 431.007 624.506 L 425.014 619.894 421.072 623.063 C 416.774 626.517, 410.861 627.759, 404.448 626.556 C 399.190 625.570, 391.808 617.958, 390.062 611.723 C 386.885 600.374, 391.214 587.924, 400.041 583.026 C 405.993 579.722, 413.988 579.615, 419.329 582.767 C 421.411 583.995, 423.651 584.991, 424.307 584.979 C 424.963 584.968, 427.750 582.986, 430.500 580.574 L 435.500 576.189 433.152 573.675 C 427.605 567.738, 411.271 564.388, 400.746 567.029 M 96 568.950 C 96 570.271, 254.085 834, 254.877 834 C 255.231 834, 263.337 820.954, 272.892 805.008 L 290.264 776.016 278.005 755.508 C 271.262 744.229, 265.373 735, 264.917 735 C 264.462 735, 262.218 738.150, 259.931 742 C 257.643 745.850, 255.392 749, 254.927 749 C 254.463 749, 231.283 710.862, 203.416 664.250 C 175.550 617.638, 151.199 576.913, 149.303 573.750 L 145.855 568 120.928 568 C 105.858 568, 96 568.376, 96 568.950 M 178.440 569.704 C 178.939 571.006, 362.641 878.297, 376.622 901.218 C 378.205 903.814, 379.822 905.951, 380.215 905.968 C 380.608 905.986, 381.464 904.987, 382.117 903.750 C 382.769 902.513, 427.795 827.150, 482.173 736.277 C 536.551 645.405, 581.306 570.367, 581.628 569.527 C 582.144 568.183, 579.220 568, 557.173 568 L 532.131 568 456.348 694.500 C 414.667 764.075, 380.310 821, 379.998 821 C 379.687 821, 345.338 764.075, 303.668 694.500 L 227.903 568 202.845 568 C 179.646 568, 177.835 568.126, 178.440 569.704 M 322 604.044 L 322 640.088 329.250 639.794 L 336.500 639.500 336.780 626.040 C 336.973 616.811, 337.444 612.337, 338.280 611.805 C 338.951 611.379, 344.113 611.024, 349.750 611.015 L 360 611 360 604 L 360 597 348.500 597 L 337 597 337 589.525 L 337 582.050 353.250 581.775 L 369.500 581.500 369.796 574.750 L 370.091 568 346.046 568 L 322 568 322 604.044 M 612.203 571.250 C 611.125 573.038, 586.761 613.763, 558.062 661.750 C 529.363 709.737, 505.509 749, 505.055 749 C 504.600 749, 502.357 745.850, 500.069 742 C 497.782 738.150, 495.538 735, 495.083 735 C 494.627 735, 488.745 744.217, 482.010 755.482 L 469.766 775.965 481.224 795.232 C 499.588 826.113, 504.451 834, 505.131 834 C 505.909 834, 664 570.220, 664 568.921 C 664 568.384, 653.596 568, 639.082 568 L 614.163 568 612.203 571.250"/>
</svg>