<?xml version="1.0" encoding="utf-8" ?><svg xmlns="http://www.w3.org/2000/svg" xmlns:xlink="http://www.w3.org/1999/xlink" width="500" height="489" viewBox="0 0 500 489"><path fill="white" transform="scale(0.2 0.200246)" d="M2095.06 906.934C1981.14 884.156 1831.58 878.105 1768.42 878.105L265.243 878.42C171.707 878.42 74.9926 878.42 25.3758 801.987C-24.9629 724.432 2.38355 648.106 87.2874 495.4C93.6152 484.073 351.076 0.00767944 351.076 0.00767944C351.076 0.00767944 377.386 32.699 403.895 53.4873C430.067 73.999 456.983 84.9422 528.724 84.9422C656.126 84.9422 1478 83.1606 1486.4 83.1145C1653.21 83.1145 1821.73 100.37 1930.93 220.131C1987.63 226.182 2170.63 250.35 2321.4 322.483C2409.66 364.65 2467.88 427.629 2489.88 504.547C2496.52 527.815 2499.85 552.259 2499.85 577.632C2499.85 650.633 2472.49 731.512 2418.9 815.564C2305.65 993.189 2201.19 1055.27 2196.51 1058.62C2132.18 1103.88 2069.85 1106.02 2069.85 1106.02C2069.85 1106.02 2125.98 1042.18 2144.92 978.322C2163.84 914.49 2095.06 906.934 2095.06 906.934L2095.06 906.934Z"/><path fill="#00295E" transform="scale(0.2 0.200246)" d="M2302.81 361.394C2130.9 279.209 1910.09 261.431 1910.09 261.431C1813.73 143.705 1650.94 126.242 1486.39 126.242C1486.39 126.242 657.639 128.062 528.709 128.062C378.653 128.062 363.586 68.5466 363.586 68.5466L162.423 445.208L684.817 445.208C849.21 445.208 857.458 428.743 966.506 348.539C1082.33 263.328 1174.77 232.518 1284.23 232.518C1393.61 232.518 1466.04 257.169 1587.78 311.125C1709.59 365.034 1774.3 391.26 1846.77 360.434C1846.77 360.434 1789.73 437.49 1617.1 365.042C1444.5 292.625 1398.29 277.22 1293.44 277.22C1190.02 277.22 1071.57 326.837 923.271 474.827L1100.01 617.05C1100.01 617.05 1059.12 680.206 1032.2 720.546C1005.36 760.863 1007.87 787.795 1022.18 807.485C1036.53 827.229 1054.61 836.145 1120.04 836.145C1185.45 836.145 1709.74 834.97 1768.4 834.97C1819.41 834.97 1978.93 839.716 2103.47 864.589C2268.83 897.672 2162.16 1037.14 2162.16 1037.14C2162.16 1037.14 2272.89 964.23 2382.52 792.372C2504.8 600.639 2474.66 443.587 2302.81 361.402L2302.81 361.394Z"/><path fill="white" transform="scale(0.2 0.200246)" d="M1999.09 392.289C1920.91 373.589 1987.76 328.296 1987.76 328.296C1875.26 351.05 1833.39 442.804 1823.73 468.476C1821.94 471.947 1820.07 475.511 1818.19 479.297C1755.94 604.548 1699.88 597.844 1593.58 597.844L1411.56 597.844C1264.11 597.844 1195.45 670.906 1124.77 795.367L1208.06 795.367C1284.15 682.049 1341.61 651.485 1492.11 643.007C1836.09 643.199 2110.28 741.895 2255.18 817.307C2461.26 471.218 2155.42 413.922 1999.09 392.289Z"/><path fill="white" transform="scale(0.2 0.200246)" d="M1358.89 794C1397.35 735.867 1475.58 716.107 1601.68 723.349C1912.9 741.396 2091.82 801.987 2230.87 853.792C2059.43 753.429 1753.94 681.112 1541.61 681.78C1437.82 682.111 1347.21 700.234 1293.96 793.985L1358.89 793.985L1358.89 794ZM1692.9 450.698C1652.35 507.288 1598.93 526.61 1447.42 516.242C1271.15 504.27 1316.64 430.002 1337.15 393.441C1337.15 393.441 1336.72 393.441 1336.56 393.387C1342.17 383.05 1351.79 365.472 1361.52 347.802C1226.44 339.454 1127.81 443.434 1127.81 443.434C1228.49 543.044 1295.65 553.426 1386.75 553.426L1557.05 553.426C1715.37 553.426 1753.63 482.176 1768.15 450.499C1740.81 453.924 1716.2 453.647 1692.9 450.698L1692.9 450.698Z"/><path fill="#4DBD38" transform="scale(0.2 0.200246)" d="M1616.04 433.842C1612.83 432.529 1609.47 431.185 1606.16 429.826C1590.64 446.168 1563.85 455.667 1537.92 452.342C1503.74 447.965 1484.07 423.145 1493.78 396.958C1495.17 393.133 1497.19 389.509 1499.62 386.076Q1473.7 375.858 1447.4 366.655C1412.33 423.398 1391.76 461.004 1513.5 471.272C1589.32 477.745 1609.9 464.752 1625.82 437.521C1622.57 436.261 1619.38 435.194 1616.04 433.834L1616.04 433.842Z"/><path fill="#B2B7BB" transform="scale(0.2 0.200246)" d="M1004.63 649.45C941.817 758.452 916.889 783.517 961 835.238L265.228 835.238C162.607 835.238 95.896 831.36 61.569 778.457C28.1941 727.081 35.0749 678.079 125.016 516.35L716.586 516.35C818.439 516.35 844.618 522.156 899.895 565.038Q952.955 606.383 1004.63 649.45Z"/><path fill="#4EAC28" transform="scale(0.2 0.200246)" d="M158.399 2171.05C84.1828 2171.05 22.6642 2207.47 22.6642 2250.54C22.6706 2346.48 193.417 2334.94 193.417 2364.5C193.417 2375.32 181.779 2383.27 157.753 2383.27C75.514 2383.27 16.8643 2336.14 16.8643 2336.14L16.8682 2431.23L56.554 2415.58C56.554 2415.58 92.0832 2431.23 174.998 2431.23C248.342 2431.23 323.534 2401.01 323.534 2351.76C323.534 2255.14 137.615 2267.18 137.615 2237.6C137.615 2226.77 149.176 2218.85 173.241 2218.85C253.729 2218.85 299.107 2252.66 299.107 2252.66L299.107 2171.05L259.878 2186.41C259.878 2186.41 223.128 2171.05 158.399 2171.05L158.399 2171.05ZM2350.59 2226.37C2292.21 2226.37 2243.76 2255.09 2243.76 2288.97C2243.76 2364.5 2378.24 2355.42 2378.24 2378.71C2378.24 2387.21 2369.06 2393.43 2350.2 2393.43C2285.36 2393.43 2239.25 2356.32 2239.25 2356.32L2239.25 2431.23L2270.5 2418.94C2270.5 2418.94 2298.41 2431.23 2363.77 2431.23C2421.51 2431.23 2480.67 2407.41 2480.67 2368.64C2480.67 2292.55 2334.32 2302.08 2334.32 2278.75C2334.32 2270.27 2343.35 2264.04 2362.35 2264.04C2425.77 2264.04 2461.42 2290.62 2461.42 2290.62L2461.42 2226.37L2430.55 2238.42C2430.55 2238.42 2401.61 2226.37 2350.59 2226.37L2350.59 2226.37ZM1470.67 2229.85L1564.83 2426.56L1651.38 2426.56L1638.59 2399.7L1676.57 2320.15L1727.59 2426.56L1814.14 2426.56L1801.22 2399.7L1882.73 2229.85L1821.89 2229.85L1770.86 2336.27L1719.97 2229.85L1633.42 2229.85L1646.21 2256.74L1608.11 2336.27L1557.08 2229.85L1470.67 2229.85L1470.67 2229.85ZM342.587 2229.87L363.655 2263.28L363.655 2393.13L342.587 2426.56L585.096 2426.56L585.096 2384.82L458.287 2384.82L458.287 2349.09L585.096 2349.09L585.096 2307.35L458.287 2307.35L458.287 2271.63L585.096 2271.63L585.096 2229.87L342.587 2229.87L342.587 2229.87ZM695.899 2229.87L707.319 2251.7L651.746 2357.91L623.383 2357.91L637.488 2385.19L615.839 2426.56L687.439 2426.56L704.273 2394.43L781.952 2394.43L798.761 2426.56L893.159 2426.56L790.302 2229.87L695.899 2229.87L695.899 2229.87ZM918.824 2229.87L939.881 2263.28L939.881 2393.13L918.824 2426.56L1029.27 2426.56L1029.27 2349.09L1104.68 2349.09L1104.68 2426.56L1194.04 2426.56L1194.04 2229.87L1104.68 2229.87L1104.68 2307.35L1029.27 2307.35L1029.27 2229.87L918.824 2229.87L918.824 2229.87ZM1301.84 2229.87L1313.2 2251.7L1257.62 2357.91L1229.29 2357.91L1243.38 2385.19L1221.75 2426.56L1293.32 2426.56L1310.23 2394.43L1387.87 2394.43L1404.66 2426.56L1499.09 2426.56L1396.13 2229.87L1301.84 2229.87L1301.84 2229.87ZM1910.76 2229.87L1931.68 2263.28L1931.68 2393.13L1910.76 2426.56L2026.37 2426.56L2026.37 2368.67L2048.59 2349.89L2048.59 2349.91L2109.82 2426.56L2209.41 2426.56L2110.46 2297.44L2190.29 2229.87L2084.36 2229.87L2101.16 2256.5L2026.37 2319.52L2026.37 2229.87L1910.76 2229.87L1910.76 2229.87ZM743.097 2320.15L762.848 2357.91L723.353 2357.91L743.097 2320.15ZM1348.99 2320.15L1368.75 2357.91L1329.22 2357.91L1348.99 2320.15Z"/><path fill="white" transform="scale(0.2 0.200246)" d="M522.783 2054.23C493.77 2054.23 469.783 2068.45 469.783 2085.29C469.783 2122.73 536.462 2118.21 536.462 2129.79C536.462 2134.03 531.902 2137.11 522.511 2137.11C490.399 2137.11 467.535 2118.67 467.535 2118.67L467.535 2155.83L482.997 2149.73C482.997 2149.73 496.883 2155.83 529.293 2155.83C557.931 2155.83 587.292 2144.02 587.292 2124.77C587.292 2087.07 514.657 2091.75 514.657 2080.22C514.657 2075.96 519.192 2072.9 528.57 2072.9C559.997 2072.9 577.759 2086.07 577.759 2086.07L577.759 2054.23L562.426 2060.19C562.426 2060.19 548.075 2054.23 522.782 2054.23L522.783 2054.23ZM696.466 2055.92L706.879 2072.52L706.879 2136.93L696.466 2153.51L816.755 2153.51L816.755 2132.8L753.858 2132.8L753.858 2115.08L816.755 2115.08L816.755 2094.37L753.858 2094.37L753.858 2076.69L816.755 2076.69L816.755 2055.92L696.466 2055.92L696.466 2055.92ZM969.086 2055.92L974.769 2066.77L947.193 2119.5L933.137 2119.5L940.125 2133.02L929.383 2153.51L964.93 2153.51L973.249 2137.56L1011.78 2137.56L1020.1 2153.51L1066.95 2153.51L1015.94 2055.92L969.086 2055.92L969.086 2055.92ZM1153.77 2055.92L1153.77 2079.26L1201.65 2079.26L1201.65 2136.93L1191.2 2153.51L1248.63 2153.51L1248.63 2079.26L1296.46 2079.26L1296.46 2055.92L1153.77 2055.92L1153.77 2055.92ZM1406.58 2055.92L1406.58 2079.26L1454.51 2079.26L1454.51 2136.93L1444.04 2153.51L1501.4 2153.51L1501.4 2079.26L1549.32 2079.26L1549.32 2055.92L1406.58 2055.92L1406.58 2055.92ZM1661.7 2055.92L1672.29 2072.52L1672.29 2134.86L1661.7 2153.51L1787.26 2153.51L1787.26 2130.2L1719.18 2130.2L1719.18 2055.92L1661.7 2055.92L1661.7 2055.92ZM1897.31 2055.92L1907.77 2072.52L1907.77 2136.93L1897.31 2153.51L2017.7 2153.51L2017.7 2132.8L1954.79 2132.8L1954.79 2115.08L2017.7 2115.08L2017.7 2094.37L1954.79 2094.37L1954.79 2076.69L2017.7 2076.69L2017.7 2055.92L1897.31 2055.92L1897.31 2055.92ZM992.506 2100.73L1002.31 2119.5L982.716 2119.5L992.506 2100.73L992.506 2100.73Z"/></svg>