<?xml version="1.0" standalone="no"?>
<!DOCTYPE svg PUBLIC "-//W3C//DTD SVG 20010904//EN"
 "http://www.w3.org/TR/2001/REC-SVG-20010904/DTD/svg10.dtd">
<svg version="1.0" xmlns="http://www.w3.org/2000/svg"
 width="760.000000pt" height="1002.000000pt" viewBox="0 0 760.000000 1002.000000"
 preserveAspectRatio="xMidYMid meet">
<metadata>
Created by potrace 1.16, written by Peter Selinger 2001-2019
</metadata>
<g transform="translate(0.000000,1002.000000) scale(0.100000,-0.100000)"
fill="#000000" stroke="none">
<g>
<path d="M3758 9934 c-25 -38 -203 -334 -398 -659 -194 -324 -363 -605 -375
-623 l-23 -33 -19 28 c-11 15 -93 150 -183 298 -177 293 -197 325 -210 325 -4
0 -25 -28 -45 -62 -246 -411 -2485 -4197 -2488 -4208 -4 -12 2492 -4230 2503
-4230 3 0 97 153 209 340 113 187 207 340 210 340 6 0 63 -94 596 -988 143
-237 262 -432 266 -432 6 0 155 248 669 1113 101 169 186 307 189 307 4 0 97
-149 207 -332 110 -182 205 -333 211 -335 6 -2 47 54 90 124 138 223 2418
4086 2416 4093 -2 7 -2067 3503 -2364 4003 -88 147 -164 267 -169 267 -13 0
-32 -29 -192 -295 -80 -132 -162 -266 -182 -298 l-38 -59 -32 49 c-18 26 -190
311 -381 633 -192 322 -366 612 -386 644 l-37 59 -44 -69z m462 -754 c219
-366 403 -671 408 -679 10 -14 26 12 292 447 l124 204 17 -24 c49 -64 2303
-3873 2407 -4067 l36 -68 -74 -129 c-131 -229 -2040 -3460 -2290 -3877 -29
-48 -55 -87 -59 -87 -3 0 -60 89 -125 198 -178 294 -289 472 -296 472 -6 0
-192 -304 -548 -900 -150 -250 -282 -466 -292 -480 l-20 -25 -20 25 c-10 14
-181 295 -379 625 -199 330 -384 636 -412 679 l-51 80 -45 -70 c-24 -38 -117
-189 -206 -336 -89 -148 -164 -268 -167 -268 -9 0 -383 630 -1932 3249 -274
464 -497 849 -494 856 2 6 76 133 164 281 87 148 582 985 1099 1859 1026 1734
1146 1936 1175 1978 l20 28 23 -33 c12 -18 102 -165 199 -325 98 -161 181
-293 186 -293 11 0 87 122 447 725 371 619 392 652 404 634 6 -8 189 -313 409
-679z"/>
<g>
<path d="M3747 9489 c-29 -46 -179 -291 -331 -544 -153 -253 -313 -515 -355
-583 l-76 -123 -21 26 c-11 14 -78 120 -148 236 -71 115 -152 246 -181 291
l-52 80 -26 -33 c-14 -19 -134 -216 -267 -439 -134 -223 -613 -1024 -1065
-1781 -453 -756 -855 -1431 -894 -1499 l-71 -123 19 -31 c10 -17 38 -65 61
-106 143 -249 2041 -3422 2156 -3602 27 -43 51 -78 54 -78 7 0 4 -4 205 325
202 331 198 325 205 325 3 0 12 -12 21 -28 18 -30 746 -1231 788 -1299 14 -24
28 -43 31 -43 7 0 -19 -42 420 685 432 716 413 685 420 685 3 0 95 -146 205
-325 109 -179 202 -325 205 -325 3 0 19 22 36 48 78 120 2111 3517 2225 3719
l24 41 -42 80 c-98 187 -2191 3688 -2259 3778 l-20 28 -144 -235 c-79 -129
-168 -272 -197 -318 l-54 -84 -33 49 c-18 27 -192 312 -386 634 -194 322 -363
600 -376 619 l-23 34 -54 -84z m756 -1579 c868 -1449 969 -1619 962 -1630 -4
-6 -104 -10 -243 -10 l-237 0 -443 738 c-594 990 -727 1207 -742 1207 -15 0
-138 -199 -728 -1182 l-457 -763 -242 0 c-134 0 -243 2 -243 5 0 15 284 494
1107 1870 459 766 528 881 551 908 14 16 16 16 27 -1 7 -9 316 -524 688 -1142z
m-1769 220 c166 -275 190 -324 175 -353 -28 -55 -223 -377 -228 -377 -3 0 -26
30 -49 66 -36 55 -46 64 -56 53 -24 -25 -206 -325 -667 -1094 l-455 -760 -239
-3 c-131 -1 -242 1 -247 6 -4 4 37 82 91 172 735 1231 1502 2508 1512 2518 17
16 12 24 163 -228z m3069 -1059 c775 -1292 837 -1395 837 -1405 0 -4 -111 -5
-247 -4 l-246 3 -471 785 c-474 790 -628 1043 -652 1069 -11 12 -20 3 -55 -52
-24 -37 -46 -67 -49 -67 -4 0 -47 69 -97 153 -145 245 -145 245 -138 267 6 17
262 450 312 527 l17 25 18 -22 c10 -12 357 -588 771 -1279z m-2270 -1014 c18
-8 38 -21 45 -29 11 -14 9 -19 -14 -37 -22 -17 -34 -20 -58 -14 -62 15 -104 9
-136 -22 -53 -51 -52 -141 1 -195 35 -34 81 -40 130 -15 22 12 34 13 49 5 75
-40 18 -103 -95 -104 -147 -2 -245 114 -216 254 21 102 104 170 208 170 30 0
68 -6 86 -13z m408 1 c57 -19 90 -49 115 -102 52 -112 16 -234 -86 -286 -117
-59 -261 -15 -311 94 -35 77 -20 186 34 245 50 54 165 78 248 49z m-1873 -63
c13 -33 35 -86 49 -118 31 -68 26 -72 88 78 l42 100 46 3 c26 2 47 -1 47 -5 0
-4 -37 -97 -82 -205 l-82 -198 -36 0 -36 0 -77 193 c-42 106 -77 198 -77 205
0 9 14 12 47 10 l47 -3 24 -60z m559 -130 c45 -104 82 -196 83 -202 0 -9 -15
-13 -45 -13 -44 0 -46 2 -67 45 l-22 45 -76 0 -76 0 -22 -45 c-20 -41 -25 -45
-57 -45 -22 0 -38 6 -41 14 -3 8 25 86 62 173 36 87 73 173 81 191 13 31 17
33 56 30 l42 -3 82 -190z m350 68 c90 -147 90 -147 92 30 l1 97 45 0 45 0 0
-205 0 -205 -57 0 -58 1 -85 134 c-65 104 -86 131 -92 118 -3 -10 -7 -71 -7
-135 l-1 -118 -45 0 -45 0 0 205 0 205 64 0 65 0 78 -127z m1275 -12 c3 -131
5 -141 27 -165 16 -17 35 -26 56 -26 21 0 40 9 56 26 22 24 24 34 27 165 l4
139 45 0 45 0 -4 -152 c-3 -172 -14 -205 -78 -242 -47 -28 -132 -28 -185 0
-69 36 -79 66 -83 242 l-4 152 45 0 45 0 4 -139z m460 22 c24 -64 49 -118 55
-120 9 -3 40 67 92 210 9 24 15 27 57 27 44 0 46 -1 40 -24 -9 -36 -135 -337
-152 -363 -19 -30 -59 -30 -79 1 -16 24 -155 364 -155 378 0 4 22 8 48 8 l49
0 45 -117z m598 77 l0 -40 -95 0 -95 0 0 -40 0 -40 90 0 90 0 0 -40 0 -40 -90
0 c-97 0 -99 -1 -84 -57 5 -19 15 -22 100 -28 l94 -7 0 -39 0 -39 -145 0 -145
0 0 205 0 205 140 0 140 0 0 -40z m364 11 c57 -53 52 -141 -9 -189 l-27 -21
41 -77 c23 -41 41 -80 41 -85 0 -5 -21 -9 -47 -9 l-48 0 -43 80 c-63 117 -92
105 -92 -37 l0 -43 -45 0 -45 0 0 206 0 206 124 -4 c116 -3 126 -5 150 -27z
m-1038 -662 c66 -11 150 -56 161 -86 4 -11 -4 -26 -28 -46 -69 -59 -73 -60
-110 -38 -27 16 -51 21 -111 21 -76 0 -79 -1 -120 -37 -54 -50 -81 -110 -80
-187 0 -69 20 -128 59 -168 61 -64 180 -76 247 -25 19 15 40 27 47 27 15 0
119 -78 119 -89 0 -14 -66 -69 -113 -93 -36 -20 -57 -23 -147 -22 -91 0 -112
3 -162 26 -151 70 -226 200 -216 377 8 134 73 239 186 299 95 51 158 60 268
41z m2029 0 c64 -11 140 -47 140 -66 0 -6 -21 -33 -47 -61 l-47 -50 -53 20
c-76 29 -158 9 -171 -42 -9 -35 31 -68 135 -110 160 -63 188 -95 188 -207 -1
-98 -47 -169 -139 -210 -45 -20 -198 -23 -257 -6 -44 14 -105 51 -111 68 -2 6
19 35 45 65 l49 55 50 -28 c93 -50 203 -28 203 42 0 39 -21 54 -135 101 -159
66 -195 104 -195 202 1 112 73 197 195 228 44 12 81 11 150 -1z m-5735 -217
c28 -115 55 -214 59 -221 5 -8 37 73 82 208 l74 221 71 0 c86 0 74 19 164
-253 34 -104 66 -185 70 -180 7 7 45 142 111 396 l10 37 79 0 c44 0 80 -3 80
-7 0 -5 -47 -165 -103 -358 l-103 -350 -75 -3 -74 -3 -79 243 -79 243 -79
-242 -80 -243 -72 0 -71 0 -103 348 c-56 191 -102 353 -102 360 0 8 24 12 84
12 l84 0 52 -208z m1040 73 l0 -135 155 0 155 0 0 135 0 135 80 0 80 0 0 -360
0 -360 -80 0 -80 0 0 155 0 155 -155 0 -155 0 0 -155 0 -155 -80 0 -80 0 0
353 c0 195 3 357 7 360 3 4 39 7 80 7 l73 0 0 -135z m800 -225 l0 -360 -75 0
-75 0 0 360 0 360 75 0 75 0 0 -360z m700 290 l0 -70 -105 0 -105 0 0 -290 0
-290 -73 0 -74 0 -6 197 c-4 108 -7 236 -7 284 l0 87 -100 7 -100 8 0 68 0 69
285 0 285 0 0 -70z m620 1 l0 -69 -160 -4 c-129 -2 -163 -6 -171 -18 -8 -13
-3 -99 7 -109 2 -2 55 -6 119 -9 l115 -5 0 -73 0 -74 -74 0 c-40 0 -94 -3
-120 -6 l-46 -7 0 -62 0 -63 170 -7 170 -7 0 -69 0 -69 -250 0 -250 0 0 360 0
360 245 0 245 0 0 -69z m1214 42 c19 -39 296 -680 296 -687 0 -3 -39 -6 -87
-6 l-88 0 -30 76 -30 76 -140 -7 c-77 -4 -143 -10 -146 -13 -4 -4 -17 -35 -29
-69 l-23 -63 -84 0 c-85 0 -85 0 -79 24 5 19 161 388 275 649 l20 47 65 0 c61
0 66 -2 80 -27z m816 -9 c73 -41 100 -92 100 -183 -1 -158 -83 -220 -292 -221
l-88 0 0 -140 0 -140 -80 0 -80 0 0 353 c0 195 3 357 7 361 4 4 91 6 193 4
l185 -3 55 -31z m-1915 -978 c63 -16 104 -38 130 -66 l20 -22 -50 -44 c-27
-24 -55 -44 -63 -44 -7 0 -30 9 -52 20 -120 61 -261 -15 -290 -156 -18 -84 0
-151 56 -213 73 -81 154 -90 249 -30 53 34 53 34 130 -34 l40 -35 -25 -27
c-34 -38 -132 -83 -197 -91 -104 -13 -231 29 -312 101 -21 19 -53 63 -72 97
-33 62 -34 65 -34 183 0 113 2 123 28 171 91 164 263 238 442 190z m-2320
-712 c530 -886 657 -1094 666 -1094 4 0 26 29 49 65 23 36 45 65 49 65 11 0
251 -392 251 -410 0 -12 -342 -580 -350 -580 -8 0 -33 42 -665 1095 -690 1149
-925 1545 -925 1557 0 4 113 7 252 6 l252 -3 421 -701z m1002 -304 c767 -1278
907 -1510 914 -1510 3 0 345 566 760 1258 l755 1257 244 3 c134 1 247 -1 252
-6 4 -4 -23 -59 -61 -122 -928 -1559 -1927 -3228 -1937 -3240 -12 -12 -16 -12
-28 5 -22 29 -1154 1919 -1937 3234 -37 63 -66 118 -63 123 3 5 116 7 252 6
l246 -3 603 -1005z m813 940 l0 -70 -165 0 -165 0 0 -75 0 -75 115 0 115 0 0
-69 0 -68 -105 -5 c-58 -3 -108 -8 -112 -12 -4 -4 -9 -68 -11 -142 l-4 -134
-74 0 -74 0 0 360 0 360 240 0 240 0 0 -70z m2936 54 c-11 -29 -205 -355 -861
-1449 -683 -1138 -717 -1195 -725 -1195 -7 0 -11 6 -192 308 -87 145 -158 268
-158 272 0 5 44 82 98 172 119 197 145 238 153 238 4 0 26 -29 49 -65 23 -36
45 -65 49 -65 9 0 51 68 589 965 260 435 480 800 488 813 14 22 16 22 265 22
228 0 251 -1 245 -16z"/>
<g>
<path d="M3816 5980 c-40 -13 -64 -38 -77 -80 -14 -46 1 -108 35 -139 48 -45
144 -37 186 17 38 48 21 158 -30 190 -26 16 -81 22 -114 12z"/>
</g>
<g>
<path d="M2474 5874 c-15 -39 -15 -47 -3 -55 19 -12 56 -11 64 2 8 12 -23 99
-35 99 -5 0 -16 -21 -26 -46z"/>
</g>
<g>
<path d="M5490 5978 c0 -43 14 -77 33 -82 60 -15 120 35 85 71 -23 22 -118 31
-118 11z"/>
</g>
<g>
<path d="M5207 5104 c-8 -16 -26 -61 -40 -100 l-26 -72 31 -6 c46 -9 116 -7
123 3 5 9 -42 149 -63 187 -9 16 -11 14 -25 -12z"/>
</g>
<g>
<path d="M5840 5140 l0 -93 70 6 c82 7 119 22 139 58 12 22 12 29 0 54 -18 39
-48 52 -136 61 l-73 7 0 -93z"/>
</g>
</g>
</g>
</g>
</svg>
