<?xml version="1.0" standalone="no"?>
<!DOCTYPE svg PUBLIC "-//W3C//DTD SVG 20010904//EN"
 "http://www.w3.org/TR/2001/REC-SVG-20010904/DTD/svg10.dtd">
<svg version="1.0" xmlns="http://www.w3.org/2000/svg"
 width="952.000000pt" height="847.783975pt" viewBox="0 0 952.000000 847.783975"
 preserveAspectRatio="xMidYMid meet">
<metadata>
Created by potrace 1.12, written by Peter Selinger 2001-2015
</metadata>
<g transform="translate(-55.000000,856.611825) scale(0.100000,-0.100000)"
fill="#000000" stroke="none">
<path d="M3085 8564 c-129 -19 -231 -38 -290 -56 -86 -25 -201 -80 -244 -116
-31 -26 -32 -29 -38 -132 -6 -128 14 -300 53 -437 47 -165 192 -434 350 -651
15 -20 15 -25 3 -36 -8 -7 -126 -81 -264 -166 -137 -84 -285 -175 -328 -201
l-78 -49 -610 0 c-335 0 -609 -1 -609 -3 0 -7 -84 -745 -115 -1010 -19 -163
-35 -304 -35 -312 0 -13 21 -15 130 -15 108 0 130 -3 130 -15 0 -15 -155
-1349 -165 -1422 l-6 -43 -135 0 c-104 0 -134 -3 -134 -13 0 -7 -34 -300 -75
-650 -41 -350 -75 -641 -75 -647 0 -8 289 -9 1040 -4 956 7 1040 6 1040 -9 0
-20 -208 -1801 -214 -1839 -5 -23 29 -63 287 -338 l292 -312 95 6 c52 3 593 9
1201 12 l1107 7 288 248 c236 203 290 255 297 281 4 18 41 323 82 678 41 355
78 665 81 689 l7 44 -758 -6 c-417 -4 -761 -9 -764 -12 -5 -6 -70 -528 -71
-572 l0 -23 -270 0 -270 0 0 33 c1 17 38 345 83 727 l82 695 274 3 273 2 -5
-22 c-9 -39 -51 -428 -46 -432 2 -2 341 -1 753 2 l748 7 23 90 c33 128 102
328 142 411 109 227 331 333 608 289 64 -10 168 -38 267 -71 383 -130 668
-163 923 -105 319 72 511 183 635 367 l48 70 -89 50 c-49 27 -91 56 -94 64 -3
9 53 173 124 365 71 193 132 361 136 375 6 18 -14 5 -81 -56 -105 -94 -189
-164 -264 -221 -63 -48 -229 -153 -241 -153 -5 0 -61 66 -126 148 -136 170
-363 402 -475 485 -136 101 -286 171 -454 211 l-71 17 -7 67 c-8 86 -8 455 0
476 12 32 67 22 543 -99 457 -115 426 -110 666 -107 116 1 235 3 265 4 l55 3
0 -170 c-1 -195 -13 -281 -80 -573 -4 -14 -2 -21 4 -18 22 14 321 388 379 475
73 109 154 271 208 419 l38 103 111 84 c259 195 412 377 550 654 90 180 145
368 145 497 0 77 -3 84 -85 189 -259 331 -721 629 -1268 817 l-151 52 -94 92
c-348 344 -887 606 -1472 715 -308 58 -543 73 -988 66 -449 -7 -651 -26 -1172
-107 l-244 -38 -161 38 c-388 94 -670 131 -1050 135 -148 2 -283 1 -300 -1z
m705 -164 c417 -55 869 -168 1345 -335 105 -37 205 -73 224 -81 19 -8 36 -12
38 -10 8 8 -157 121 -304 209 -84 49 -153 93 -153 97 0 7 312 52 485 70 347
34 947 45 1180 21 768 -80 1398 -347 1804 -765 78 -80 88 -87 155 -107 144
-43 346 -123 511 -203 182 -88 289 -151 427 -253 l88 -64 -62 -47 c-75 -57
-137 -145 -169 -238 -33 -97 -30 -200 9 -374 44 -197 55 -280 56 -420 1 -90
-4 -145 -18 -198 l-18 -72 -78 -59 c-43 -32 -96 -69 -119 -82 -33 -18 -44 -32
-57 -73 -35 -107 -97 -255 -149 -352 -54 -104 -125 -217 -132 -211 -2 2 2 39
8 83 14 97 7 241 -16 321 l-17 60 -70 -18 c-259 -68 -557 -61 -726 18 -120 56
-249 188 -312 319 -100 206 -72 453 72 642 77 99 218 187 345 213 l62 13 -6
200 c-3 111 -7 202 -8 204 -1 1 -38 -14 -81 -33 l-79 -36 4 -114 3 -115 -28
-10 c-88 -32 -189 -98 -263 -171 -263 -262 -295 -692 -72 -988 22 -30 39 -56
38 -57 -1 -2 -50 11 -107 27 -390 110 -460 118 -511 61 -39 -43 -49 -108 -49
-310 0 -456 50 -783 150 -982 44 -87 132 -200 155 -199 11 0 54 6 95 14 41 7
78 10 81 7 3 -4 14 -47 23 -97 10 -49 19 -98 22 -107 5 -16 21 -18 163 -18
l158 0 49 -110 c28 -64 55 -110 63 -110 20 0 186 92 293 162 102 67 224 157
306 226 29 24 55 42 58 40 2 -3 -43 -104 -101 -224 -58 -120 -102 -220 -98
-222 32 -11 164 -95 161 -103 -8 -24 -123 -104 -213 -149 -293 -146 -603 -140
-1200 24 -258 71 -313 80 -449 73 -157 -7 -271 -53 -391 -158 -81 -71 -156
-213 -250 -476 l-48 -133 -276 0 c-152 0 -421 -3 -598 -6 l-322 -7 5 34 c12
76 51 424 49 427 -2 2 -205 0 -452 -5 l-448 -8 -102 -865 c-56 -476 -102 -875
-102 -887 l-1 -23 450 0 c422 0 450 1 450 18 1 33 67 573 71 576 2 2 264 7
582 10 475 6 577 5 577 -6 1 -33 -131 -1145 -138 -1165 -4 -11 -114 -113 -245
-226 l-238 -205 -442 -6 c-243 -3 -752 -8 -1132 -11 l-690 -6 -230 246 c-126
136 -231 252 -233 258 -1 7 49 455 113 997 63 541 115 988 115 993 0 5 -422 6
-1040 2 -977 -7 -1040 -7 -1040 9 0 10 25 227 55 483 30 256 55 472 55 480 0
10 28 13 134 13 l135 0 6 43 c9 66 205 1745 205 1757 0 6 -48 10 -130 10 -128
0 -130 0 -130 23 0 12 13 135 30 272 26 227 80 701 80 710 0 2 251 5 558 7
l557 3 363 218 c200 119 372 217 382 217 9 0 84 -30 166 -66 216 -96 464 -197
470 -192 1 2 -59 49 -134 105 -267 199 -529 464 -673 679 -170 254 -255 521
-234 734 l7 70 78 24 c89 28 207 52 330 65 138 16 552 5 730 -19z m6001 -1598
c41 -43 87 -97 103 -121 l29 -42 -12 -82 c-33 -212 -137 -432 -310 -654 -31
-40 -59 -72 -62 -73 -4 0 -2 24 3 53 19 97 3 247 -42 422 -54 204 -58 293 -19
375 15 30 46 75 70 99 43 42 133 101 155 101 7 0 45 -35 85 -78z m-2391 -2228
c171 -57 264 -118 410 -271 137 -142 402 -434 398 -438 -16 -15 -150 -96 -153
-93 -3 2 -20 38 -39 81 l-35 76 -143 3 -142 3 -25 125 c-13 69 -25 126 -25
127 -1 1 -60 -9 -131 -22 -122 -23 -131 -23 -143 -7 -24 30 -60 107 -82 173
-21 60 -60 241 -60 275 0 20 28 14 170 -32z"/>
<path d="M7397 7620 c-80 -9 -316 -56 -326 -66 -2 -2 11 -4 30 -4 163 0 840
-124 887 -162 6 -6 12 -30 12 -53 0 -96 3 -99 97 -128 l85 -25 -6 66 c-3 37
-8 109 -12 160 l-7 93 -36 19 c-59 29 -188 68 -286 85 -113 20 -322 27 -438
15z"/>
<path d="M2455 6375 c-600 -7 -1091 -12 -1091 -13 -1 -1 -4 -35 -8 -74 -7 -77
-52 -457 -61 -520 l-5 -37 133 -3 133 -3 -125 -1075 c-68 -591 -125 -1076
-126 -1078 -1 -1 -62 -5 -136 -10 l-133 -7 -37 -310 c-20 -170 -36 -311 -34
-313 2 -2 471 1 1042 6 571 5 1038 9 1039 8 1 0 -54 -476 -122 -1056 -68 -580
-122 -1061 -121 -1068 1 -7 79 -96 172 -197 l170 -184 540 5 c297 2 770 7
1050 10 l511 6 174 150 c96 82 183 157 193 167 15 15 26 88 67 442 28 233 52
439 55 457 l6 34 -388 -7 c-213 -4 -389 -9 -391 -10 -2 -2 -19 -135 -38 -296
-19 -161 -36 -294 -37 -295 -1 -1 -291 -4 -645 -6 l-643 -4 6 40 c3 23 61 503
129 1069 68 565 125 1030 128 1032 3 3 292 8 643 12 l638 6 -6 -44 c-21 -150
-48 -411 -44 -415 3 -3 178 -2 389 2 l384 7 44 369 43 368 -49 53 c-27 28
-103 110 -169 181 l-120 129 -818 -7 c-777 -6 -818 -5 -813 11 2 10 23 183 47
385 l42 367 -106 112 c-59 62 -107 116 -107 119 0 5 206 187 255 225 9 8 29
147 64 445 29 239 53 442 54 451 1 9 -72 97 -167 198 l-169 181 -176 -2 c-97
-1 -666 -7 -1266 -13z m990 -652 c-3 -16 -19 -147 -35 -292 -17 -146 -31 -265
-33 -266 -1 -2 -258 -5 -570 -8 l-568 -5 5 37 c3 20 17 137 31 261 14 124 28
240 30 257 l6 33 332 3 c183 1 439 3 569 5 l238 2 -5 -27z m-171 -1305 c-7
-57 -32 -268 -55 -469 l-44 -366 -374 -6 c-491 -9 -741 -9 -741 1 0 16 101
888 106 909 6 29 4 29 620 31 l501 2 -13 -102z"/>
<path d="M2620 5580 l-124 -5 -17 -130 c-9 -71 -16 -132 -14 -133 2 -2 163 0
358 4 l354 7 12 101 c7 56 14 116 18 134 l5 32 -233 -2 c-129 -1 -290 -5 -359
-8z"/>
<path d="M2563 4342 l-222 -2 -5 -33 c-5 -29 -66 -541 -66 -553 0 -2 165 -3
367 -2 l367 3 33 265 c17 146 32 279 32 296 l1 32 -142 -2 c-79 0 -243 -2
-365 -4z"/>
<path d="M4504 5535 c-5 -22 -9 -121 -9 -220 1 -139 5 -195 19 -245 57 -211
142 -355 299 -507 143 -138 295 -234 487 -306 164 -62 173 -61 73 4 -153 99
-346 273 -463 414 -195 238 -333 533 -384 822 l-13 78 -9 -40z"/>
</g>
</svg>
