<?xml version="1.0" encoding="UTF-8" standalone="no"?>
<svg xmlns:rdf="http://www.w3.org/1999/02/22-rdf-syntax-ns#" xmlns="http://www.w3.org/2000/svg" xml:space="preserve" height="31.087" viewBox="0 0 192.73613 31.08662" width="192.74" version="1.1" xmlns:cc="http://creativecommons.org/ns#" xmlns:dc="http://purl.org/dc/elements/1.1/"><g transform="matrix(1.25 0 0 -1.25 -286.1 510.25)"><g><path d="m11.861 10.139c-5.7455 0-10.508 2.82-10.508 6.154 0.0005 7.427 13.219 6.534 13.219 8.822 0 0.838-0.901 1.453-2.761 1.453-6.3666 0-10.907-3.648-10.907-3.648l0.0003 7.361 3.0723-1.211s2.7505 1.211 9.1694 1.211c5.678 0 11.499-2.339 11.499-6.152 0-7.48-14.393-6.548-14.393-8.838 0-0.838 0.895-1.451 2.758-1.451 6.231 0 9.744 2.617 9.744 2.617v-6.318l-3.037 1.189s-2.845-1.189-7.856-1.189zm169.71 4.283c-4.52 0-8.27 2.223-8.27 4.846 0 5.847 10.41 5.144 10.41 6.947 0 0.658-0.71 1.14-2.17 1.14-5.02 0-8.59-2.873-8.59-2.873v5.799l2.42-0.951s2.16 0.951 7.22 0.951c4.47 0 9.05-1.844 9.05-4.845 0-5.891-11.33-5.153-11.33-6.959 0-0.657 0.7-1.139 2.17-1.139 4.91 0 7.67 2.058 7.67 2.058v-4.974l-2.39 0.933s-2.24-0.933-6.19-0.933zm-68.12 0.269l7.29 15.229h6.7l-0.99-2.08 2.94-6.158 3.95 8.238h6.7l-1-2.08 6.31-13.149h-4.71l-3.95 8.239-3.94-8.239h-6.7l0.99 2.082-2.95 6.157-3.95-8.239h-6.69zm-87.331 0.002l1.631 2.586v10.053l-1.631 2.588h18.774v-3.232h-9.817v-2.766h9.817v-3.231h-9.817v-2.765h9.817v-3.233h-18.774zm27.352 0l0.884 1.69-4.302 8.222h-2.196l1.092 2.112-1.676 3.203h5.543l1.303-2.488h6.014l1.301 2.488h7.308l-7.963-15.227h-7.308zm17.258 0l1.63 2.586v10.053l-1.63 2.588h8.55v-5.998h5.838v5.998h6.918v-15.227h-6.918v5.998h-5.838v-5.998h-8.55zm29.651 0l0.88 1.69-4.303 8.222h-2.193l1.091 2.112-1.675 3.203h5.541l1.309-2.488h6.01l1.3 2.488h7.31l-7.97-15.227h-7.3zm47.14 0l1.62 2.586v10.053l-1.62 2.588h8.95v-4.482l1.72-1.454v0.002l4.74 5.934h7.71l-7.66-9.996 6.18-5.231h-8.2l1.3 2.061-5.79 4.879v-6.94h-8.95zm-90.395 6.989l1.529 2.923h-3.058l1.529-2.923zm46.905 0l1.53 2.923h-3.06l1.53-2.923z" transform="matrix(.8 0 0 -.8 228.88 408.2)" fill="#024"/><path d="m40.07 1.0957c-2.246 0-4.103 1.1005-4.103 2.4043 0 2.8987 5.162 2.5489 5.162 3.4453 0 0.3276-0.353 0.5664-1.08 0.5664-2.486 0-4.256-1.4277-4.256-1.4277v2.8769l1.197-0.4726s1.075 0.4726 3.584 0.4726c2.217 0 4.49-0.9142 4.49-2.4043 0-2.9186-5.623-2.5561-5.623-3.4492 0-0.3293 0.351-0.5664 1.077-0.5664 2.433 0 3.808 1.0195 3.808 1.0195v-2.4648l-1.187 0.4609s-1.111-0.4609-3.069-0.4609zm13.446 0.1309l0.806 1.2851v4.9863l-0.806 1.2832h9.312v-1.6035h-4.869v-1.3711h4.869v-1.6035h-4.869v-1.3691h4.869v-1.6074h-9.312zm21.105 0l0.44 0.8398-2.135 4.082h-1.088l0.541 1.0469-0.832 1.5859h2.752l0.644-1.2343h2.983l0.644 1.2343h3.627l-3.949-7.5546h-3.627zm14.297 0v1.8066h3.707v4.4648l-0.809 1.2832h4.446v-5.748h3.703v-1.8066h-11.047zm19.572 0v1.8066h3.71v4.4648l-0.81 1.2832h4.44v-5.748h3.71v-1.8066h-11.05zm19.75 0l0.82 1.2851v4.8262l-0.82 1.4433h9.72v-1.8046h-5.27v-5.75h-4.45zm18.24 0l0.81 1.2851v4.9863l-0.81 1.2832h9.32v-1.6035h-4.87v-1.3711h4.87v-1.6035h-4.87v-1.3691h4.87v-1.6074h-9.32zm-70.046 3.4687l0.759 1.4531h-1.517l0.758-1.4531z" transform="matrix(.8 0 0 -.8 228.88 408.2)" fill="#a5acaf"/></g></g></svg>
